<svg id="Capa_1" data-name="Capa 1" xmlns="http://www.w3.org/2000/svg" viewBox="0 0 1400 980"><defs><style>.cls-1{fill:#fbc900;}.cls-2{fill:#211915;}.cls-3{font-size:98.63px;font-family:Oswald-Medium, Oswald;letter-spacing:0.13em;}.cls-4{font-size:70.25px;font-family:Oswald-Regular, Oswald;letter-spacing:0.12em;}</style></defs><title>DD Website Under Construction 34212</title><rect class="cls-1" width="1400" height="980"/><polygon class="cls-2" points="116.67 24.18 180.98 24.18 245.29 120.22 180.98 216.26 116.67 216.26 180.98 120.22 116.67 24.18"/><polygon class="cls-2" points="247.92 24.18 312.23 24.18 376.55 120.22 312.23 216.26 247.92 216.26 312.23 120.22 247.92 24.18"/><polygon class="cls-2" points="379.17 24.18 443.48 24.18 507.8 120.22 443.48 216.26 379.17 216.26 443.48 120.22 379.17 24.18"/><polygon class="cls-2" points="510.42 24.18 574.73 24.18 639.04 120.22 574.73 216.26 510.42 216.26 574.73 120.22 510.42 24.18"/><polygon class="cls-2" points="641.67 24.18 705.98 24.18 770.3 120.22 705.98 216.26 641.67 216.26 705.98 120.22 641.67 24.18"/><polygon class="cls-2" points="772.92 24.18 837.23 24.18 901.55 120.22 837.23 216.26 772.92 216.26 837.23 120.22 772.92 24.18"/><polygon class="cls-2" points="904.17 24.18 968.48 24.18 1032.8 120.22 968.48 216.26 904.17 216.26 968.48 120.22 904.17 24.18"/><polygon class="cls-2" points="1035.42 24.18 1099.73 24.18 1164.05 120.22 1099.73 216.26 1035.42 216.26 1099.73 120.22 1035.42 24.18"/><polygon class="cls-2" points="1166.67 24.18 1230.98 24.18 1295.3 120.22 1230.98 216.26 1166.67 216.26 1230.98 120.22 1166.67 24.18"/><polygon class="cls-2" points="49.73 24.18 0 24.18 0 45.96 49.73 120.22 0 194.49 0 216.26 49.73 216.26 114.05 120.22 49.73 24.18"/><polygon class="cls-2" points="1400 80.58 1362.23 24.18 1297.92 24.18 1362.23 120.22 1297.92 216.26 1362.23 216.26 1400 159.87 1400 80.58"/><polygon class="cls-2" points="1283.33 760.71 1219.02 760.71 1154.7 856.75 1219.02 952.79 1283.33 952.79 1219.02 856.75 1283.33 760.71"/><polygon class="cls-2" points="1152.08 760.71 1087.77 760.71 1023.46 856.75 1087.77 952.79 1152.08 952.79 1087.77 856.75 1152.08 760.71"/><polygon class="cls-2" points="1020.83 760.71 956.52 760.71 892.21 856.75 956.52 952.79 1020.83 952.79 956.52 856.75 1020.83 760.71"/><polygon class="cls-2" points="889.58 760.71 825.27 760.71 760.96 856.75 825.27 952.79 889.58 952.79 825.27 856.75 889.58 760.71"/><polygon class="cls-2" points="758.33 760.71 694.02 760.71 629.71 856.75 694.02 952.79 758.33 952.79 694.02 856.75 758.33 760.71"/><polygon class="cls-2" points="627.08 760.71 562.77 760.71 498.45 856.75 562.77 952.79 627.08 952.79 562.77 856.75 627.08 760.71"/><polygon class="cls-2" points="495.83 760.71 431.52 760.71 367.2 856.75 431.52 952.79 495.83 952.79 431.52 856.75 495.83 760.71"/><polygon class="cls-2" points="364.58 760.71 300.27 760.71 235.96 856.75 300.27 952.79 364.58 952.79 300.27 856.75 364.58 760.71"/><polygon class="cls-2" points="233.33 760.71 169.02 760.71 104.7 856.75 169.02 952.79 233.33 952.79 169.02 856.75 233.33 760.71"/><polygon class="cls-2" points="1350.27 760.71 1400 760.71 1400 782.49 1350.27 856.75 1400 931.02 1400 952.79 1350.27 952.79 1285.95 856.75 1350.27 760.71"/><polygon class="cls-2" points="0 817.11 37.77 760.71 102.08 760.71 37.77 856.75 102.08 952.79 37.77 952.79 0 896.39 0 817.11"/><rect class="cls-2" width="1400" height="28.59"/><rect class="cls-2" y="951.41" width="1400" height="28.59"/><path class="cls-2" d="M717.38,712.17a1.51,1.51,0,0,1,.87.4l-7.51,16c-.82,0-2.8.12-3.28.12a1.51,1.51,0,0,1-.87-.4l-2.57-16c1.56,0,3.5-.12,4.09-.12a1.5,1.5,0,0,1,.87.4l.79,7.85a22.41,22.41,0,0,1,0,2.6,22.12,22.12,0,0,1,.8-2.79l3.12-7.94c1.38,0,3.1-.12,3.64-.12Z"/><path class="cls-2" d="M725.12,720.08c0,1.75-1,2.9-3.4,3.4l-2.55.53a1.83,1.83,0,0,0,2,1.64,3.42,3.42,0,0,0,2.34-1.06,1.48,1.48,0,0,1,.72,1.22c0,1.45-2.23,3-4.83,3a4.1,4.1,0,0,1-4.35-4.47c0-3.25,2.3-7.65,6.39-7.65,2.24,0,3.65,1.33,3.65,3.37Zm-4.31,1.68a1,1,0,0,0,.71-1.13c0-.48-.16-1.21-.72-1.21-1,0-1.46,1.63-1.62,2.85Z"/><path class="cls-2" d="M732,716.71c2.07,0,3.62,1.09,3.62,2.52,0,1.78-2.15,2.43-2.15,2.43s-.63-1.94-2.08-1.94c-1,0-1.54,1-1.54,3.11,0,1.95.51,2.82,1.77,2.82a3,3,0,0,0,2.09-.88,1.47,1.47,0,0,1,.72,1.2c0,1.39-2.14,2.88-4.64,2.88-2.66,0-4.29-1.66-4.29-4.43,0-3.29,2.35-7.69,6.51-7.69Z"/><path class="cls-2" d="M741.9,714.12a1.2,1.2,0,0,1,.83.38l-.39,2.45h2.59l-.58,1.87c-.19.6-.49.93-1.1.93H741.9l-.75,4.77c-.12.77,0,1.13.57,1.13a2,2,0,0,0,.95-.29,1.46,1.46,0,0,1,.72,1.16c0,1.17-1.66,2.33-3.77,2.33s-3.13-1.37-2.76-3.76l.84-5.33H736.3l.61-1.95a1.14,1.14,0,0,1,1.07-.85h.68l.82-2.25a17.47,17.47,0,0,1,2.42-.57Z"/><path class="cls-2" d="M754.48,720.08c0,1.75-1,2.9-3.4,3.4l-2.55.53a1.84,1.84,0,0,0,2,1.64,3.43,3.43,0,0,0,2.34-1.06,1.48,1.48,0,0,1,.72,1.22c0,1.45-2.23,3-4.83,3a4.1,4.1,0,0,1-4.35-4.47c0-3.25,2.3-7.65,6.39-7.65,2.24,0,3.65,1.33,3.65,3.37Zm-4.31,1.68a1,1,0,0,0,.71-1.13c0-.48-.16-1.21-.72-1.21-1,0-1.46,1.63-1.62,2.85Z"/><path class="cls-2" d="M764.88,720.08c0,1.75-1,2.9-3.4,3.4l-2.55.53a1.83,1.83,0,0,0,2,1.64,3.42,3.42,0,0,0,2.34-1.06,1.48,1.48,0,0,1,.72,1.22c0,1.45-2.23,3-4.83,3a4.1,4.1,0,0,1-4.35-4.47c0-3.25,2.3-7.65,6.39-7.65,2.24,0,3.65,1.33,3.65,3.37Zm-4.31,1.68a1,1,0,0,0,.71-1.13c0-.48-.16-1.21-.72-1.21-1,0-1.46,1.63-1.62,2.85Z"/><path class="cls-2" d="M773.39,724.43a3.11,3.11,0,0,1,.88,2.15c0,1.79-1.51,2.25-2.78,2.25-1.65,0-2.85-.79-4.11-1.21-.35.4-.69.81-1,1.21,0,0-1.86,0-1.86-1.32,0-1.55,2.58-4.2,5.35-7.2a5.24,5.24,0,0,0-.9-.1,2.76,2.76,0,0,0-2.19.79,3.33,3.33,0,0,1-.74-2.15c.09-1.68,1.69-2.15,3-2.15a7.69,7.69,0,0,1,3.28.94l.78-.94s1.88.06,1.88,1.33c0,1.49-2.49,4.1-5.19,7a6.11,6.11,0,0,0,1.63.29,2.58,2.58,0,0,0,2.05-.9Z"/><path class="cls-2" d="M785.47,727.81c-.67,4.08-3.47,6.16-7,6.16-2.26,0-3.95-1.19-3.95-2.56a1.59,1.59,0,0,1,.76-1.33,3.53,3.53,0,0,0,2.28.7,3.41,3.41,0,0,0,3.69-2.75l.27-1.67a4.89,4.89,0,0,1-3.82,2.49c-1.8,0-2.6-1.47-2.12-4.46l.51-3.23c.31-2,.4-3.6.4-3.6,1.28-.24,3-.83,3.56-.83a1.55,1.55,0,0,1,.88.38l-.64,4-.59,3.74c-.05.34,0,.54.32.54,1.49,0,2.33-4.27,2.33-4.27.31-2,.4-3.6.4-3.6,1.28-.24,3-.83,3.55-.83a1.55,1.55,0,0,1,.88.38l-.64,4Z"/><path class="cls-2" d="M612.83,717.37h4a7.83,7.83,0,0,1,2.07.21,3.63,3.63,0,0,1,1.64,1,4.75,4.75,0,0,1,1,1.76,8,8,0,0,1,.36,2.57,7.14,7.14,0,0,1-.33,2.31,4.79,4.79,0,0,1-1.16,1.92,3.86,3.86,0,0,1-1.54.87,6.64,6.64,0,0,1-1.94.23h-4.13Zm2.19,1.84v7.2h1.64a6,6,0,0,0,1.33-.1,2,2,0,0,0,.89-.45,2.3,2.3,0,0,0,.57-1,7.08,7.08,0,0,0,.22-2,6.49,6.49,0,0,0-.22-1.93,2.49,2.49,0,0,0-.62-1.05,2.09,2.09,0,0,0-1-.51,9.94,9.94,0,0,0-1.8-.1Z"/><path class="cls-2" d="M628,725.73l2.08.35a3.41,3.41,0,0,1-1.26,1.74,3.71,3.71,0,0,1-2.16.6,3.52,3.52,0,0,1-3-1.34,4.51,4.51,0,0,1-.78-2.71,4.34,4.34,0,0,1,1-3.06,3.37,3.37,0,0,1,2.59-1.11,3.5,3.5,0,0,1,2.77,1.16,5.13,5.13,0,0,1,1,3.55H625a2.1,2.1,0,0,0,.5,1.44,1.57,1.57,0,0,0,1.2.52,1.28,1.28,0,0,0,.82-.27A1.65,1.65,0,0,0,628,725.73Zm.12-2.1a2,2,0,0,0-.47-1.38,1.5,1.5,0,0,0-2.21,0,1.92,1.92,0,0,0-.44,1.35Z"/><path class="cls-2" d="M630.89,726l2.09-.32a1.53,1.53,0,0,0,.54.92,1.82,1.82,0,0,0,1.14.32,2.06,2.06,0,0,0,1.22-.3.66.66,0,0,0,.27-.56.55.55,0,0,0-.15-.39,1.66,1.66,0,0,0-.7-.27,11.24,11.24,0,0,1-3.19-1,2,2,0,0,1-.93-1.77,2.18,2.18,0,0,1,.81-1.72,3.77,3.77,0,0,1,2.5-.7,4.37,4.37,0,0,1,2.4.53,2.69,2.69,0,0,1,1.08,1.56l-2,.36a1.21,1.21,0,0,0-.48-.7,1.75,1.75,0,0,0-1-.24,2.26,2.26,0,0,0-1.18.23.49.49,0,0,0-.24.42.46.46,0,0,0,.21.38,7.8,7.8,0,0,0,1.95.59,5.79,5.79,0,0,1,2.32.93,1.93,1.93,0,0,1,.65,1.55,2.38,2.38,0,0,1-.9,1.86,4,4,0,0,1-2.68.78,4.39,4.39,0,0,1-2.55-.65A3,3,0,0,1,630.89,726Z"/><path class="cls-2" d="M639.76,719.3v-1.93h2.08v1.93Zm0,8.94v-7.87h2.08v7.87Z"/><path class="cls-2" d="M643.48,728.75l2.38.29a.81.81,0,0,0,.27.57,1.57,1.57,0,0,0,.93.22,2.43,2.43,0,0,0,1.22-.24,1,1,0,0,0,.41-.53,3.16,3.16,0,0,0,.1-1V727a2.82,2.82,0,0,1-2.36,1.27,2.9,2.9,0,0,1-2.51-1.34,4.56,4.56,0,0,1-.73-2.64,4.34,4.34,0,0,1,1-3,3.07,3.07,0,0,1,2.37-1,2.88,2.88,0,0,1,2.41,1.28v-1.1h1.95v7.06a7,7,0,0,1-.23,2.08,2.58,2.58,0,0,1-.64,1.08,2.85,2.85,0,0,1-1.11.62,5.84,5.84,0,0,1-1.75.22,4.54,4.54,0,0,1-2.84-.69,2.15,2.15,0,0,1-.84-1.74Q643.47,728.9,643.48,728.75Zm1.86-4.62a2.84,2.84,0,0,0,.49,1.83,1.5,1.5,0,0,0,1.2.58,1.65,1.65,0,0,0,1.29-.6,2.6,2.6,0,0,0,.53-1.77,2.76,2.76,0,0,0-.5-1.82,1.6,1.6,0,0,0-1.27-.59,1.54,1.54,0,0,0-1.23.58A2.73,2.73,0,0,0,645.34,724.13Z"/><path class="cls-2" d="M659.8,728.23h-2.08v-4a6.2,6.2,0,0,0-.13-1.65,1.16,1.16,0,0,0-.43-.58,1.24,1.24,0,0,0-.72-.21,1.67,1.67,0,0,0-1,.3,1.49,1.49,0,0,0-.59.79,6.79,6.79,0,0,0-.16,1.81v3.56h-2.08v-7.87h1.93v1.16a3.22,3.22,0,0,1,3.85-1.09,2.11,2.11,0,0,1,.86.63,2.29,2.29,0,0,1,.41.87,6.51,6.51,0,0,1,.11,1.4Z"/><path class="cls-2" d="M666.16,725.73l2.08.35a3.41,3.41,0,0,1-1.26,1.74,3.71,3.71,0,0,1-2.16.6,3.52,3.52,0,0,1-3-1.34,4.51,4.51,0,0,1-.78-2.71,4.34,4.34,0,0,1,1-3.06,3.37,3.37,0,0,1,2.59-1.11,3.5,3.5,0,0,1,2.77,1.16,5.13,5.13,0,0,1,1,3.55h-5.22a2.1,2.1,0,0,0,.5,1.44,1.57,1.57,0,0,0,1.2.52,1.28,1.28,0,0,0,.82-.27A1.65,1.65,0,0,0,666.16,725.73Zm.12-2.1a2,2,0,0,0-.47-1.38,1.5,1.5,0,0,0-2.21,0,1.92,1.92,0,0,0-.44,1.35Z"/><path class="cls-2" d="M677,728.23H675v-1.16a3.13,3.13,0,0,1-1.14,1,2.93,2.93,0,0,1-1.32.33,3,3,0,0,1-2.32-1.09,4.44,4.44,0,0,1-1-3,4.4,4.4,0,0,1,.94-3,3.07,3.07,0,0,1,2.38-1,3,3,0,0,1,2.28,1.1v-3.91H677Zm-5.56-4.11a3.6,3.6,0,0,0,.35,1.82,1.57,1.57,0,0,0,1.41.82,1.53,1.53,0,0,0,1.22-.61,2.82,2.82,0,0,0,.5-1.83,3.09,3.09,0,0,0-.49-2,1.55,1.55,0,0,0-1.25-.6,1.57,1.57,0,0,0-1.24.59A2.66,2.66,0,0,0,671.4,724.13Z"/><path class="cls-2" d="M682.53,728.23V717.37h2.08v3.91a3,3,0,0,1,2.28-1.1,3.07,3.07,0,0,1,2.38,1,4.31,4.31,0,0,1,.94,3,4.55,4.55,0,0,1-1,3.11,3,3,0,0,1-2.33,1.09,2.88,2.88,0,0,1-1.33-.34,3.17,3.17,0,0,1-1.13-1v1.16Zm2.07-4.11a3.35,3.35,0,0,0,.39,1.81,1.65,1.65,0,0,0,1.44.83,1.47,1.47,0,0,0,1.17-.59,2.9,2.9,0,0,0,.49-1.86,3.07,3.07,0,0,0-.49-1.94,1.55,1.55,0,0,0-1.25-.6,1.57,1.57,0,0,0-1.24.58A2.67,2.67,0,0,0,684.6,724.13Z"/><path class="cls-2" d="M690.6,720.36h2.22l1.88,5.59,1.84-5.59h2.16l-2.78,7.57-.5,1.37a5.58,5.58,0,0,1-.52,1.05,2.28,2.28,0,0,1-.57.59,2.49,2.49,0,0,1-.79.35,4.12,4.12,0,0,1-1.06.13,5.52,5.52,0,0,1-1.18-.13l-.19-1.63a4.61,4.61,0,0,0,.88.1,1.31,1.31,0,0,0,1.07-.43,3,3,0,0,0,.53-1.09Z"/><text class="cls-3" transform="translate(329.3 486.92) scale(0.91 1)">THIS WEBSITE IS</text><text class="cls-4" transform="translate(334.3 562.19) scale(0.97 1)">UNDER CONSTRUCTION</text></svg>